<svg width="17" height="6" viewBox="0 0 17 6" fill="none" xmlns="http://www.w3.org/2000/svg">
<path d="M0.0859375 0.380723V0.23333V0.0859375H16.0859V0.380723H0.0859375Z" fill="#0068B1"/>
<path d="M0.0859375 0.965381V0.820445V0.675509H16.0859V0.965381H0.0859375Z" fill="#0068B1"/>
<path d="M0.0859375 1.55004V1.4051V1.26017H16.0859V1.55004H0.0859375Z" fill="#0068B1"/>
<path d="M0.0859375 5.38716V3.63073V1.8743L1.94326 1.87406L2.23521 2.73518C2.3958 3.20885 2.52894 3.59963 2.5311 3.60371C2.53366 3.60853 2.636 3.30829 3.11423 1.87416L4.91989 1.87676L4.92235 5.38716H3.71201L3.70955 3.49823L3.43954 4.41197C3.29101 4.91457 3.16535 5.33956 3.15113 5.38716H2.51644C2.16736 5.38716 1.88176 5.38608 1.88176 5.38471C1.88176 5.38333 1.75885 4.96606 1.60864 4.45736C1.45843 3.94866 1.33347 3.52805 1.33101 3.52265C1.3282 3.5166 1.32633 3.87565 1.32579 5.38716H0.0859375Z" fill="#0068B1"/>
<path d="M5.45612 3.63319C5.28166 2.68069 5.13755 1.89523 5.13593 1.88781L5.13292 1.8743H5.8419C6.40495 1.8743 6.55123 1.87558 6.55251 1.88044C6.55339 1.88383 6.62257 2.242 6.70626 2.67637C6.7899 3.11073 6.85947 3.4661 6.86085 3.46605C6.86222 3.46605 6.97317 3.10842 7.35157 1.87676L8.83624 1.87406L9.08717 2.66998C9.22517 3.10774 9.33947 3.46428 9.34119 3.46231C9.34286 3.4604 9.41775 3.1039 9.50764 2.67022C9.59748 2.23655 9.67192 1.88 9.67305 1.87799C9.67418 1.87597 9.9928 1.8743 11.0872 1.8743L11.0868 1.88536C11.0866 1.89145 10.9322 2.68128 10.4006 5.38471H8.72909L8.41219 4.38244C8.23792 3.83119 8.09484 3.37972 8.0943 3.37913C8.09376 3.37859 7.94276 3.83021 7.42419 5.38726L5.77843 5.38716L5.77588 5.37611C5.77445 5.37002 5.63059 4.58574 5.45612 3.63319Z" fill="#0068B1"/>
<path d="M11.2495 5.38716V3.63073L11.2496 1.87425L13.1112 1.87676L13.4042 2.74259C13.5654 3.21882 13.6984 3.60853 13.6997 3.60858C13.7011 3.60867 13.8318 3.21902 14.2782 1.87676L16.0857 1.87425L16.0859 5.38716H14.8756L14.8753 4.44754C14.8751 3.93073 14.8732 3.51233 14.8711 3.51773C14.8689 3.52314 14.7434 3.94601 14.3172 5.38731L13.0489 5.38471L12.7713 4.44631C12.6187 3.93019 12.4928 3.50678 12.4915 3.50545C12.4902 3.50412 12.4892 3.92694 12.4894 5.38716H11.2495Z" fill="#0068B1"/>
<path d="M0.0859375 0.380723V0.23333V0.0859375H16.0859V0.380723H0.0859375Z" stroke="#0068B1" stroke-width="0.171894"/>
<path d="M0.0859375 0.965381V0.820445V0.675509H16.0859V0.965381H0.0859375Z" stroke="#0068B1" stroke-width="0.171894"/>
<path d="M0.0859375 1.55004V1.4051V1.26017H16.0859V1.55004H0.0859375Z" stroke="#0068B1" stroke-width="0.171894"/>
<path d="M0.0859375 5.38716V3.63073V1.8743L1.94326 1.87406L2.23521 2.73518C2.3958 3.20885 2.52894 3.59963 2.5311 3.60371C2.53366 3.60853 2.636 3.30829 3.11423 1.87416L4.91989 1.87676L4.92235 5.38716H3.71201L3.70955 3.49823L3.43954 4.41197C3.29101 4.91457 3.16535 5.33956 3.15113 5.38716H2.51644C2.16736 5.38716 1.88176 5.38608 1.88176 5.38471C1.88176 5.38333 1.75885 4.96606 1.60864 4.45736C1.45843 3.94866 1.33347 3.52805 1.33101 3.52265C1.3282 3.5166 1.32633 3.87565 1.32579 5.38716H0.0859375Z" stroke="#0068B1" stroke-width="0.171894"/>
<path d="M5.45612 3.63319C5.28166 2.68069 5.13755 1.89523 5.13593 1.88781L5.13292 1.8743H5.8419C6.40495 1.8743 6.55123 1.87558 6.55251 1.88044C6.55339 1.88383 6.62257 2.242 6.70626 2.67637C6.7899 3.11073 6.85947 3.4661 6.86085 3.46605C6.86222 3.46605 6.97317 3.10842 7.35157 1.87676L8.83624 1.87406L9.08717 2.66998C9.22517 3.10774 9.33947 3.46428 9.34119 3.46231C9.34286 3.4604 9.41775 3.1039 9.50764 2.67022C9.59748 2.23655 9.67192 1.88 9.67305 1.87799C9.67418 1.87597 9.9928 1.8743 11.0872 1.8743L11.0868 1.88536C11.0866 1.89145 10.9322 2.68128 10.4006 5.38471H8.72909L8.41219 4.38244C8.23792 3.83119 8.09484 3.37972 8.0943 3.37913C8.09376 3.37859 7.94276 3.83021 7.42419 5.38726L5.77843 5.38716L5.77588 5.37611C5.77445 5.37002 5.63059 4.58574 5.45612 3.63319Z" stroke="#0068B1" stroke-width="0.171894"/>
<path d="M11.2495 5.38716V3.63073L11.2496 1.87425L13.1112 1.87676L13.4042 2.74259C13.5654 3.21882 13.6984 3.60853 13.6997 3.60858C13.7011 3.60867 13.8318 3.21902 14.2782 1.87676L16.0857 1.87425L16.0859 5.38716H14.8756L14.8753 4.44754C14.8751 3.93073 14.8732 3.51233 14.8711 3.51773C14.8689 3.52314 14.7434 3.94601 14.3172 5.38731L13.0489 5.38471L12.7713 4.44631C12.6187 3.93019 12.4928 3.50678 12.4915 3.50545C12.4902 3.50412 12.4892 3.92694 12.4894 5.38716H11.2495Z" stroke="#0068B1" stroke-width="0.171894"/>
</svg>
